<mxfile host="app.diagrams.net" modified="2023-11-16T09:44:04.774Z" agent="Mozilla/5.0 (X11; Ubuntu; Linux x86_64; rv:109.0) Gecko/20100101 Firefox/119.0" etag="cZnyr1kjeEToXqdhaWUo" version="22.1.2" type="google">
  <diagram name="Page-1" id="ycpEvNfKLPFe-0tDsVEB">
    <mxGraphModel grid="1" page="1" gridSize="10" guides="1" tooltips="1" connect="1" arrows="1" fold="1" pageScale="1" pageWidth="850" pageHeight="1100" math="0" shadow="0">
      <root>
        <mxCell id="0" />
        <mxCell id="1" parent="0" />
        <mxCell id="nUOHIScazb6lLkhSrCj9-2" value="" style="rounded=0;whiteSpace=wrap;html=1;fillColor=#5FC433;strokeColor=#2D7600;fontColor=#ffffff;" vertex="1" parent="1">
          <mxGeometry x="38" y="80" width="190" height="450" as="geometry" />
        </mxCell>
        <mxCell id="nUOHIScazb6lLkhSrCj9-4" value="Text" style="text;html=1;strokeColor=none;fillColor=none;align=center;verticalAlign=middle;whiteSpace=wrap;rounded=0;" vertex="1" parent="1">
          <mxGeometry x="420" y="240" width="60" height="30" as="geometry" />
        </mxCell>
        <UserObject label="" id="nUOHIScazb6lLkhSrCj9-7">
          <mxCell style="rounded=0;whiteSpace=wrap;html=1;" vertex="1" parent="1">
            <mxGeometry x="229" y="80" width="620" height="450" as="geometry" />
          </mxCell>
        </UserObject>
        <mxCell id="nUOHIScazb6lLkhSrCj9-8" value="Station Name" style="rounded=1;whiteSpace=wrap;html=1;" vertex="1" parent="1">
          <mxGeometry x="250" y="106" width="200" height="38" as="geometry" />
        </mxCell>
        <mxCell id="nUOHIScazb6lLkhSrCj9-11" value="Address" style="rounded=1;whiteSpace=wrap;html=1;" vertex="1" parent="1">
          <mxGeometry x="460" y="104" width="180" height="40" as="geometry" />
        </mxCell>
        <mxCell id="nUOHIScazb6lLkhSrCj9-12" value="Cost" style="rounded=1;whiteSpace=wrap;html=1;" vertex="1" parent="1">
          <mxGeometry x="650" y="103" width="180" height="41" as="geometry" />
        </mxCell>
        <mxCell id="nUOHIScazb6lLkhSrCj9-13" value="State" style="rounded=1;whiteSpace=wrap;html=1;" vertex="1" parent="1">
          <mxGeometry x="250" y="180" width="200" height="40" as="geometry" />
        </mxCell>
        <mxCell id="nUOHIScazb6lLkhSrCj9-14" value="Pincode" style="rounded=1;whiteSpace=wrap;html=1;" vertex="1" parent="1">
          <mxGeometry x="650" y="180" width="180" height="40" as="geometry" />
        </mxCell>
        <mxCell id="nUOHIScazb6lLkhSrCj9-15" value="City" style="rounded=1;whiteSpace=wrap;html=1;" vertex="1" parent="1">
          <mxGeometry x="460" y="180" width="180" height="40" as="geometry" />
        </mxCell>
        <mxCell id="nUOHIScazb6lLkhSrCj9-17" value="Select Date and Time" style="rounded=1;whiteSpace=wrap;html=1;" vertex="1" parent="1">
          <mxGeometry x="250" y="250" width="200" height="40" as="geometry" />
        </mxCell>
        <mxCell id="nUOHIScazb6lLkhSrCj9-19" value="Add Charge Station" style="rounded=0;whiteSpace=wrap;html=1;fontStyle=1;fillColor=#CCFF99;strokeColor=#0e8088;" vertex="1" parent="1">
          <mxGeometry x="50" y="148" width="160" height="30" as="geometry" />
        </mxCell>
        <mxCell id="nUOHIScazb6lLkhSrCj9-21" value="Dashboard" style="rounded=0;whiteSpace=wrap;html=1;strokeWidth=1;perimeterSpacing=1;fontStyle=1" vertex="1" parent="1">
          <mxGeometry x="50" y="110" width="160" height="30" as="geometry" />
        </mxCell>
        <mxCell id="nUOHIScazb6lLkhSrCj9-26" value="Customer Request" style="rounded=0;whiteSpace=wrap;html=1;fontStyle=1" vertex="1" parent="1">
          <mxGeometry x="50" y="190" width="160" height="30" as="geometry" />
        </mxCell>
        <mxCell id="nUOHIScazb6lLkhSrCj9-28" value="&lt;b&gt;&lt;font style=&quot;font-size: 14px;&quot;&gt;ADD STATION&lt;/font&gt;&lt;/b&gt;" style="rounded=0;whiteSpace=wrap;html=1;fillColor=#54DB00;" vertex="1" parent="1">
          <mxGeometry x="425" y="350" width="260" height="50" as="geometry" />
        </mxCell>
        <mxCell id="056ZAy3VkUbGgrHlQEHY-1" value="" style="rounded=0;whiteSpace=wrap;html=1;fillColor=#5FC433;" vertex="1" parent="1">
          <mxGeometry x="38" y="30" width="812" height="50" as="geometry" />
        </mxCell>
        <mxCell id="056ZAy3VkUbGgrHlQEHY-3" value="Book My Charge Station" style="text;html=1;strokeColor=none;fillColor=none;align=left;verticalAlign=middle;whiteSpace=wrap;rounded=0;fontStyle=1;fontSize=14;" vertex="1" parent="1">
          <mxGeometry x="57" y="40" width="190" height="30" as="geometry" />
        </mxCell>
      </root>
    </mxGraphModel>
  </diagram>
</mxfile>
